<mxfile host="app.diagrams.net" modified="2024-06-02T17:55:15.412Z" agent="Mozilla/5.0 (Windows NT 10.0; Win64; x64) AppleWebKit/537.36 (KHTML, like Gecko) Chrome/125.0.0.0 Safari/537.36 Edg/125.0.0.0" etag="LumfW-kPpUSlYH78ApDT" version="24.4.10" type="device">
  <diagram name="Страница — 1" id="hUOQd1Gx7EEcIvRkx538">
    <mxGraphModel dx="1042" dy="569" grid="1" gridSize="10" guides="1" tooltips="1" connect="1" arrows="1" fold="1" page="1" pageScale="1" pageWidth="1169" pageHeight="1654" math="0" shadow="0">
      <root>
        <mxCell id="0" />
        <mxCell id="1" parent="0" />
        <mxCell id="86kp0sUyw0_uckTzIpCh-12" style="edgeStyle=orthogonalEdgeStyle;rounded=0;orthogonalLoop=1;jettySize=auto;html=1;" parent="1" source="86kp0sUyw0_uckTzIpCh-1" target="86kp0sUyw0_uckTzIpCh-4" edge="1">
          <mxGeometry relative="1" as="geometry" />
        </mxCell>
        <mxCell id="86kp0sUyw0_uckTzIpCh-13" style="edgeStyle=orthogonalEdgeStyle;rounded=0;orthogonalLoop=1;jettySize=auto;html=1;entryX=0.5;entryY=0;entryDx=0;entryDy=0;" parent="1" source="86kp0sUyw0_uckTzIpCh-1" target="86kp0sUyw0_uckTzIpCh-5" edge="1">
          <mxGeometry relative="1" as="geometry" />
        </mxCell>
        <mxCell id="86kp0sUyw0_uckTzIpCh-14" style="edgeStyle=orthogonalEdgeStyle;rounded=0;orthogonalLoop=1;jettySize=auto;html=1;entryX=0.5;entryY=0;entryDx=0;entryDy=0;" parent="1" source="86kp0sUyw0_uckTzIpCh-1" target="86kp0sUyw0_uckTzIpCh-6" edge="1">
          <mxGeometry relative="1" as="geometry" />
        </mxCell>
        <mxCell id="-fj4FCeKyXtQS5lPsNpT-2" style="edgeStyle=orthogonalEdgeStyle;rounded=0;orthogonalLoop=1;jettySize=auto;html=1;" edge="1" parent="1" source="86kp0sUyw0_uckTzIpCh-1" target="86kp0sUyw0_uckTzIpCh-2">
          <mxGeometry relative="1" as="geometry" />
        </mxCell>
        <mxCell id="-fj4FCeKyXtQS5lPsNpT-3" style="edgeStyle=orthogonalEdgeStyle;rounded=0;orthogonalLoop=1;jettySize=auto;html=1;entryX=0.5;entryY=0;entryDx=0;entryDy=0;" edge="1" parent="1" source="86kp0sUyw0_uckTzIpCh-1" target="-fj4FCeKyXtQS5lPsNpT-1">
          <mxGeometry relative="1" as="geometry" />
        </mxCell>
        <mxCell id="-fj4FCeKyXtQS5lPsNpT-4" style="edgeStyle=orthogonalEdgeStyle;rounded=0;orthogonalLoop=1;jettySize=auto;html=1;entryX=0.5;entryY=0;entryDx=0;entryDy=0;" edge="1" parent="1" source="86kp0sUyw0_uckTzIpCh-1" target="86kp0sUyw0_uckTzIpCh-3">
          <mxGeometry relative="1" as="geometry" />
        </mxCell>
        <mxCell id="-fj4FCeKyXtQS5lPsNpT-7" style="edgeStyle=orthogonalEdgeStyle;rounded=0;orthogonalLoop=1;jettySize=auto;html=1;entryX=0.5;entryY=0;entryDx=0;entryDy=0;" edge="1" parent="1" source="86kp0sUyw0_uckTzIpCh-1" target="86kp0sUyw0_uckTzIpCh-7">
          <mxGeometry relative="1" as="geometry">
            <mxPoint x="510" y="80" as="targetPoint" />
            <Array as="points">
              <mxPoint x="520" y="80" />
            </Array>
          </mxGeometry>
        </mxCell>
        <mxCell id="86kp0sUyw0_uckTzIpCh-1" value="Администратор" style="shape=umlActor;verticalLabelPosition=bottom;verticalAlign=top;html=1;outlineConnect=0;" parent="1" vertex="1">
          <mxGeometry x="539" y="50" width="30" height="60" as="geometry" />
        </mxCell>
        <mxCell id="86kp0sUyw0_uckTzIpCh-2" value="Просмотр списка&lt;div&gt;нотариусов&lt;/div&gt;" style="ellipse;whiteSpace=wrap;html=1;" parent="1" vertex="1">
          <mxGeometry x="70" y="180" width="120" height="60" as="geometry" />
        </mxCell>
        <mxCell id="86kp0sUyw0_uckTzIpCh-3" value="Добавление нотариуса" style="ellipse;whiteSpace=wrap;html=1;" parent="1" vertex="1">
          <mxGeometry x="330" y="180" width="120" height="60" as="geometry" />
        </mxCell>
        <mxCell id="86kp0sUyw0_uckTzIpCh-4" value="Авторизация" style="ellipse;whiteSpace=wrap;html=1;" parent="1" vertex="1">
          <mxGeometry x="590" y="180" width="120" height="60" as="geometry" />
        </mxCell>
        <mxCell id="86kp0sUyw0_uckTzIpCh-5" value="Просмотр списка&lt;div&gt;клиентов&lt;/div&gt;" style="ellipse;whiteSpace=wrap;html=1;" parent="1" vertex="1">
          <mxGeometry x="720" y="180" width="120" height="60" as="geometry" />
        </mxCell>
        <mxCell id="86kp0sUyw0_uckTzIpCh-6" value="Редактирование&lt;div&gt;списка клиентов&lt;/div&gt;" style="ellipse;whiteSpace=wrap;html=1;" parent="1" vertex="1">
          <mxGeometry x="847" y="180" width="120" height="60" as="geometry" />
        </mxCell>
        <mxCell id="86kp0sUyw0_uckTzIpCh-7" value="Редактирование&lt;div&gt;списка заявок&lt;/div&gt;" style="ellipse;whiteSpace=wrap;html=1;" parent="1" vertex="1">
          <mxGeometry x="460" y="180" width="120" height="60" as="geometry" />
        </mxCell>
        <mxCell id="86kp0sUyw0_uckTzIpCh-23" style="edgeStyle=orthogonalEdgeStyle;rounded=0;orthogonalLoop=1;jettySize=auto;html=1;entryX=0.5;entryY=0;entryDx=0;entryDy=0;" parent="1" source="86kp0sUyw0_uckTzIpCh-15" target="86kp0sUyw0_uckTzIpCh-16" edge="1">
          <mxGeometry relative="1" as="geometry" />
        </mxCell>
        <mxCell id="86kp0sUyw0_uckTzIpCh-24" style="edgeStyle=orthogonalEdgeStyle;rounded=0;orthogonalLoop=1;jettySize=auto;html=1;entryX=0.5;entryY=0;entryDx=0;entryDy=0;" parent="1" source="86kp0sUyw0_uckTzIpCh-15" target="86kp0sUyw0_uckTzIpCh-17" edge="1">
          <mxGeometry relative="1" as="geometry" />
        </mxCell>
        <mxCell id="86kp0sUyw0_uckTzIpCh-25" style="edgeStyle=orthogonalEdgeStyle;rounded=0;orthogonalLoop=1;jettySize=auto;html=1;entryX=0.5;entryY=0;entryDx=0;entryDy=0;" parent="1" source="86kp0sUyw0_uckTzIpCh-15" target="86kp0sUyw0_uckTzIpCh-21" edge="1">
          <mxGeometry relative="1" as="geometry" />
        </mxCell>
        <mxCell id="86kp0sUyw0_uckTzIpCh-26" style="edgeStyle=orthogonalEdgeStyle;rounded=0;orthogonalLoop=1;jettySize=auto;html=1;entryX=0.5;entryY=0;entryDx=0;entryDy=0;" parent="1" source="86kp0sUyw0_uckTzIpCh-15" target="86kp0sUyw0_uckTzIpCh-18" edge="1">
          <mxGeometry relative="1" as="geometry" />
        </mxCell>
        <mxCell id="86kp0sUyw0_uckTzIpCh-27" style="edgeStyle=orthogonalEdgeStyle;rounded=0;orthogonalLoop=1;jettySize=auto;html=1;entryX=0.5;entryY=0;entryDx=0;entryDy=0;" parent="1" source="86kp0sUyw0_uckTzIpCh-15" target="86kp0sUyw0_uckTzIpCh-19" edge="1">
          <mxGeometry relative="1" as="geometry" />
        </mxCell>
        <mxCell id="-fj4FCeKyXtQS5lPsNpT-9" style="edgeStyle=orthogonalEdgeStyle;rounded=0;orthogonalLoop=1;jettySize=auto;html=1;" edge="1" parent="1" source="86kp0sUyw0_uckTzIpCh-15" target="-fj4FCeKyXtQS5lPsNpT-8">
          <mxGeometry relative="1" as="geometry">
            <Array as="points">
              <mxPoint x="600" y="290" />
            </Array>
          </mxGeometry>
        </mxCell>
        <mxCell id="86kp0sUyw0_uckTzIpCh-15" value="Нотариус" style="shape=umlActor;verticalLabelPosition=bottom;verticalAlign=top;html=1;outlineConnect=0;" parent="1" vertex="1">
          <mxGeometry x="539.5" y="260" width="30" height="60" as="geometry" />
        </mxCell>
        <mxCell id="86kp0sUyw0_uckTzIpCh-16" value="Просмотр списка&lt;div&gt;клиентов&lt;/div&gt;" style="ellipse;whiteSpace=wrap;html=1;" parent="1" vertex="1">
          <mxGeometry x="130" y="390" width="120" height="60" as="geometry" />
        </mxCell>
        <mxCell id="86kp0sUyw0_uckTzIpCh-17" value="Просмотр списка&lt;div&gt;услуг&lt;/div&gt;" style="ellipse;whiteSpace=wrap;html=1;" parent="1" vertex="1">
          <mxGeometry x="260" y="390" width="120" height="60" as="geometry" />
        </mxCell>
        <mxCell id="86kp0sUyw0_uckTzIpCh-18" value="Авторизация" style="ellipse;whiteSpace=wrap;html=1;" parent="1" vertex="1">
          <mxGeometry x="670" y="390" width="120" height="60" as="geometry" />
        </mxCell>
        <mxCell id="86kp0sUyw0_uckTzIpCh-19" value="Редактирование&lt;div&gt;профиля&lt;/div&gt;" style="ellipse;whiteSpace=wrap;html=1;" parent="1" vertex="1">
          <mxGeometry x="820" y="390" width="120" height="60" as="geometry" />
        </mxCell>
        <mxCell id="86kp0sUyw0_uckTzIpCh-21" value="Удаление услуг" style="ellipse;whiteSpace=wrap;html=1;" parent="1" vertex="1">
          <mxGeometry x="400" y="390" width="120" height="60" as="geometry" />
        </mxCell>
        <mxCell id="86kp0sUyw0_uckTzIpCh-35" style="edgeStyle=orthogonalEdgeStyle;rounded=0;orthogonalLoop=1;jettySize=auto;html=1;entryX=0.5;entryY=0;entryDx=0;entryDy=0;" parent="1" source="86kp0sUyw0_uckTzIpCh-28" target="86kp0sUyw0_uckTzIpCh-30" edge="1">
          <mxGeometry relative="1" as="geometry" />
        </mxCell>
        <mxCell id="86kp0sUyw0_uckTzIpCh-36" style="edgeStyle=orthogonalEdgeStyle;rounded=0;orthogonalLoop=1;jettySize=auto;html=1;entryX=0.5;entryY=0;entryDx=0;entryDy=0;" parent="1" source="86kp0sUyw0_uckTzIpCh-28" target="86kp0sUyw0_uckTzIpCh-34" edge="1">
          <mxGeometry relative="1" as="geometry" />
        </mxCell>
        <mxCell id="86kp0sUyw0_uckTzIpCh-37" style="edgeStyle=orthogonalEdgeStyle;rounded=0;orthogonalLoop=1;jettySize=auto;html=1;entryX=0.5;entryY=0;entryDx=0;entryDy=0;" parent="1" source="86kp0sUyw0_uckTzIpCh-28" target="86kp0sUyw0_uckTzIpCh-31" edge="1">
          <mxGeometry relative="1" as="geometry" />
        </mxCell>
        <mxCell id="86kp0sUyw0_uckTzIpCh-38" style="edgeStyle=orthogonalEdgeStyle;rounded=0;orthogonalLoop=1;jettySize=auto;html=1;entryX=0.5;entryY=0;entryDx=0;entryDy=0;" parent="1" source="86kp0sUyw0_uckTzIpCh-28" target="86kp0sUyw0_uckTzIpCh-29" edge="1">
          <mxGeometry relative="1" as="geometry" />
        </mxCell>
        <mxCell id="86kp0sUyw0_uckTzIpCh-28" value="Клиент" style="shape=umlActor;verticalLabelPosition=bottom;verticalAlign=top;html=1;outlineConnect=0;" parent="1" vertex="1">
          <mxGeometry x="540" y="480" width="30" height="60" as="geometry" />
        </mxCell>
        <mxCell id="86kp0sUyw0_uckTzIpCh-29" value="Заключение сделки" style="ellipse;whiteSpace=wrap;html=1;" parent="1" vertex="1">
          <mxGeometry x="210" y="610" width="120" height="60" as="geometry" />
        </mxCell>
        <mxCell id="86kp0sUyw0_uckTzIpCh-30" value="Просмотр совершенных сделок" style="ellipse;whiteSpace=wrap;html=1;" parent="1" vertex="1">
          <mxGeometry x="374" y="610" width="120" height="60" as="geometry" />
        </mxCell>
        <mxCell id="86kp0sUyw0_uckTzIpCh-31" value="Авторизация" style="ellipse;whiteSpace=wrap;html=1;" parent="1" vertex="1">
          <mxGeometry x="770" y="610" width="120" height="60" as="geometry" />
        </mxCell>
        <mxCell id="86kp0sUyw0_uckTzIpCh-34" value="Редактирование профиля" style="ellipse;whiteSpace=wrap;html=1;" parent="1" vertex="1">
          <mxGeometry x="610" y="610" width="120" height="60" as="geometry" />
        </mxCell>
        <mxCell id="-fj4FCeKyXtQS5lPsNpT-1" value="Удаление нотариусов" style="ellipse;whiteSpace=wrap;html=1;" vertex="1" parent="1">
          <mxGeometry x="200" y="180" width="120" height="60" as="geometry" />
        </mxCell>
        <mxCell id="-fj4FCeKyXtQS5lPsNpT-8" value="Добавление услуги" style="ellipse;whiteSpace=wrap;html=1;" vertex="1" parent="1">
          <mxGeometry x="540" y="390" width="120" height="60" as="geometry" />
        </mxCell>
      </root>
    </mxGraphModel>
  </diagram>
</mxfile>
